<svg width="28" height="18" viewBox="0 0 28 18" fill="none" xmlns="http://www.w3.org/2000/svg">
<g clip-path="url(#clip0_4002_228)">
<path d="M26.8066 0.179688H4.0332V17.8196H26.8066V0.179688Z" fill="#69B42E"/>
<path d="M0 0V18H28V0H0ZM4.11044 17.7035V0.243209H26.6968V17.7035H4.11044Z" fill="black"/>
<path d="M0.566895 16.0061C0.566895 14.7837 1.43152 14.4858 2.10057 14.4858C2.70443 14.4858 3.60791 14.7411 3.60791 16.0061V17.6647H0.566895V16.0061ZM2.84799 16.5071V16.274C2.84799 16.0149 2.76962 15.7038 2.08345 15.7038C1.3795 15.7038 1.28402 15.9934 1.28402 16.274V16.5071H2.84799Z" fill="white"/>
<path d="M1.3323 13.1205H1.84923V13.1034C1.56212 13.017 1.28027 12.7834 1.28027 12.4208C1.28027 12.3649 1.28883 12.3001 1.302 12.2436H2.2147C2.19692 12.3128 2.1798 12.3903 2.1798 12.4684C2.1798 12.7922 2.38855 13.0513 2.78366 13.0513H3.60878V14.1397H1.3323V13.1205Z" fill="white"/>
<path d="M2.77246 12.3427V11.4009H3.61075V12.3427H2.77246Z" fill="white"/>
<path d="M2.51352 9.95504V9.9379L0.576172 9.45847V8.34847L2.51352 7.88174V7.86459L0.576172 7.49755V6.46503L3.60863 7.19084V8.43483L1.62716 8.93585V8.953L3.60863 9.42799V10.698L0.576172 11.4016V10.3176L2.51352 9.95504Z" fill="white"/>
<path d="M0.566895 3.6792H1.28402V5.16068H1.72259V3.74397H2.41798V5.16068H2.89145V3.64935H3.60857V6.3183H0.566895V3.6792Z" fill="white"/>
<path d="M0.566895 1.47637C0.566895 0.530843 1.07527 0.357485 1.35777 0.357485C1.70546 0.357485 1.98797 0.594979 2.05711 0.970905H2.07423C2.11769 0.66864 2.31788 0.288269 2.7953 0.288269C3.56445 0.288269 3.60791 1.15188 3.60791 1.5367V3.29441H0.566895V1.47637ZM1.77066 2.19774V1.92596C1.77066 1.52844 1.56191 1.48971 1.47498 1.48971C1.34921 1.48971 1.18392 1.58051 1.18392 1.89993V2.19774H1.77066ZM2.99154 2.19774V1.90437C2.99154 1.53289 2.7874 1.47193 2.67875 1.47193C2.37056 1.47193 2.37056 1.83071 2.37056 1.92977V2.19774H2.99154Z" fill="white"/>
<path d="M10.6345 8.08686L15.406 5.46173L20.1717 8.08813C20.1717 8.08813 20.8124 10.3539 18.2837 12.2519C15.7663 14.1411 15.057 14.1252 12.5145 12.2519C9.9654 10.3735 10.6345 8.08686 10.6345 8.08686Z" fill="black"/>
<path d="M15.3848 4.45776L18.6747 6.23516C18.7563 6.01925 18.7992 5.79509 18.7992 5.56141C18.7992 4.16693 17.276 3.03534 15.3999 3.03534C13.5218 3.03534 12 4.16629 12 5.56141C12 5.78938 12.0415 6.01036 12.1166 6.22055L15.3848 4.45776Z" fill="black"/>
<path d="M21.1251 9.60199L23.7585 11.1349L18.8242 16.9198L21.1251 9.60199Z" fill="black"/>
<path d="M21.2636 8.12561L20.9673 6.85559L26.0398 8.30151L22.8941 9.92967L23.3267 8.60758L21.2636 8.12561Z" fill="black"/>
<path d="M20.672 6.03639L20.0029 5.13976L24.4993 3.74908L23.3804 7.17242L22.9175 5.59696L20.672 6.03639Z" fill="black"/>
<path d="M19.4347 4.44444L18.4898 3.4805L19.7291 2.25366L18.3726 1.43958H21.9713L19.4347 4.44444Z" fill="black"/>
<path d="M9.67343 9.60199L7.04004 11.1349L11.9743 16.9198L9.67343 9.60199Z" fill="black"/>
<path d="M9.53596 8.12561L9.83164 6.85559L4.75977 8.30151L7.90483 9.92967L7.47218 8.60758L9.53596 8.12561Z" fill="black"/>
<path d="M10.1264 6.03639L10.7955 5.13976L6.2998 3.74908L7.41862 7.17242L7.88155 5.59696L10.1264 6.03639Z" fill="black"/>
<path d="M11.3647 4.44444L12.309 3.4805L11.0697 2.25366L12.4262 1.43958H8.82812L11.3647 4.44444Z" fill="black"/>
<path d="M14.0009 11.3978H16.8068L17.0228 10.7647H13.7849L14.0009 11.3978ZM14.7384 13.5556C15.1954 13.6946 15.6156 13.6965 16.0699 13.5606L16.2214 13.1161H14.5883L14.7384 13.5556ZM14.4026 12.5738H16.4064L16.6224 11.9407H14.1866L14.4026 12.5738ZM13.5992 10.2224H17.2079L17.4238 9.58929H13.3832L13.5992 10.2224ZM17.1394 6.41741L16.7482 8.09257H16.7278L16.1048 6.40344H14.7476L14.1583 8.09257H14.1365L13.6769 6.41487L12.5166 7.05369L13.1975 9.04699H14.7944L15.3956 7.31976H15.4174L16.0199 9.04699H17.6082L18.2885 7.05179L17.1394 6.41741Z" fill="white"/>
</g>
<defs>
<clipPath id="clip0_4002_228">
<rect width="28" height="18" fill="white"/>
</clipPath>
</defs>
</svg>
